<svg width="24" height="24" viewBox="0 0 24 24" fill="none" xmlns="http://www.w3.org/2000/svg">
<path d="M11.4938 9.00804L16.9875 3.51697C17.6773 2.82724 17.6773 1.71429 16.9875 1.02456C16.2978 0.334827 15.1849 0.334827 14.4951 1.02456L9.00139 6.51563L3.50898 1.02322C2.81925 0.333487 1.7063 0.333487 1.01657 1.02322C0.326835 1.71295 0.326835 2.8259 1.01657 3.51563L6.51032 9.0067L1.01657 14.4978C0.326835 15.1875 0.326835 16.3005 1.01657 16.9902C1.70764 17.6799 2.8246 17.6799 3.50898 16.9902L9.00273 11.4991L14.4965 16.9902C15.1862 17.6799 16.2992 17.6799 16.9889 16.9902C17.6733 16.3005 17.6733 15.1875 16.9822 14.4964L11.4938 9.00804Z" fill="#FFFFFF"/>
</svg>
