<svg width="35" height="34" viewBox="0 0 35 34" fill="none" xmlns="http://www.w3.org/2000/svg">
<g clip-path="url(#clip0_295_596)">
<path d="M16.5807 16.8462V20.8026H15.3245V11.0297H18.6543C19.4576 11.0126 20.2338 11.3174 20.8106 11.8757C21.3945 12.4012 21.7235 13.1532 21.7107 13.938C21.7277 14.7284 21.3987 15.4861 20.8106 16.013C20.2281 16.5685 19.5088 16.8462 18.6543 16.8448L16.5807 16.8462ZM16.5807 12.2332V15.6456H18.6856C19.1528 15.6598 19.6028 15.4761 19.9275 15.14C20.587 14.4991 20.6026 13.4438 19.9603 12.7844C19.9489 12.773 19.9389 12.7616 19.9275 12.7516C19.6071 12.4084 19.1542 12.2204 18.6856 12.2332H16.5807ZM24.6046 13.8981C25.5332 13.8981 26.2653 14.1459 26.8022 14.6415C27.3391 15.1371 27.6069 15.8179 27.6069 16.681V20.8026H26.4062V19.874H26.3521C25.8323 20.6388 25.1401 21.0205 24.2771 21.0205C23.5408 21.0205 22.9241 20.8026 22.4284 20.3654C21.9471 19.9595 21.6736 19.3585 21.685 18.7276C21.685 18.0354 21.9471 17.4856 22.4698 17.0769C22.9924 16.6682 23.6903 16.4631 24.5648 16.4631C25.3096 16.4631 25.9249 16.5998 26.4062 16.8718V16.5841C26.4091 16.154 26.2183 15.7467 25.8878 15.4732C25.556 15.1742 25.123 15.0104 24.6758 15.0161C23.9751 15.0161 23.4197 15.3123 23.0109 15.9034L21.9058 15.2069C22.5125 14.3339 23.4126 13.8981 24.6046 13.8981ZM22.9796 18.756C22.9782 19.0808 23.1334 19.3855 23.3955 19.575C23.6732 19.7929 24.0179 19.9096 24.3711 19.9025C24.9009 19.9011 25.4093 19.6903 25.7839 19.3157C26.1997 18.9241 26.4077 18.4655 26.4077 17.9371C26.016 17.6252 25.4705 17.4686 24.7698 17.4686C24.26 17.4686 23.8341 17.591 23.4938 17.8374C23.1505 18.0881 22.9796 18.3914 22.9796 18.756ZM34.5 14.116L30.3086 23.7507H29.0125L30.5678 20.3796L27.8105 14.116H29.1749L31.1674 18.9198H31.1944L33.1328 14.116H34.5Z" fill="#5F6368"/>
<path d="M11.5062 15.9916C11.5062 15.6085 11.4749 15.2268 11.4094 14.8494H6.1142V17.0114H9.14632C9.02099 17.7092 8.61652 18.3259 8.02548 18.7176V20.1218H9.83564C10.8952 19.1462 11.5062 17.7007 11.5062 15.9916Z" fill="#4285F4"/>
<path d="M6.11419 21.4791C7.62954 21.4791 8.90563 20.9821 9.83563 20.1233L8.02547 18.719C7.5213 19.0608 6.87329 19.256 6.11419 19.256C4.65011 19.256 3.40678 18.269 2.96243 16.9388H1.09814V18.3858C2.05094 20.2828 3.99213 21.4791 6.11419 21.4791Z" fill="#34A853"/>
<path d="M2.96245 16.9388C2.72745 16.2423 2.72745 15.4861 2.96245 14.7896V13.3427H1.09817C0.300612 14.9292 0.300612 16.7992 1.09817 18.3858L2.96245 16.9388Z" fill="#FBBC04"/>
<path d="M6.11419 12.4725C6.91459 12.4597 7.68793 12.7616 8.26758 13.3142L9.87124 11.712C8.85435 10.7577 7.50848 10.2336 6.11419 10.2493C3.99213 10.2493 2.05094 11.4471 1.09814 13.3427L2.96243 14.7897C3.40678 13.4595 4.65011 12.4725 6.11419 12.4725Z" fill="#EA4335"/>
</g>
<defs>
<clipPath id="clip0_295_596">
<rect width="34" height="34" fill="white" transform="translate(0.5)"/>
</clipPath>
</defs>
</svg>
