<svg width="126" height="126" viewBox="0 0 126 126" fill="none" xmlns="http://www.w3.org/2000/svg">
<circle cx="63.1367" cy="63.0001" r="62.5167" fill="#7948FF"/>
<g clip-path="url(#clip0_466_303)">
<mask id="mask0_466_303" style="mask-type:luminance" maskUnits="userSpaceOnUse" x="34" y="35" width="56" height="57">
<path d="M89.6967 35.6982H34V91.753H89.6967V35.6982Z" fill="white"/>
</mask>
<g mask="url(#mask0_466_303)">
<path d="M87.7975 88.1271C86.7818 89.5197 85.3645 90.5649 83.7378 91.1206C83.2449 91.2901 82.7398 91.4214 82.2269 91.5133C80.4409 91.7931 78.6166 91.6979 76.8691 91.234C75.8714 90.9932 74.8908 90.6856 73.934 90.3133C72.2203 89.6313 70.5648 88.8096 68.9843 87.8566L68.7021 87.6864C66.922 86.6174 65.9711 85.941 64.191 84.7846C64.8119 84.3482 67.4473 82.245 67.7382 82.0355C68.4763 82.437 69.5357 83.0042 70.6212 83.541C71.1726 83.8159 71.7371 84.0777 72.2667 84.3133C72.5099 84.4224 72.753 84.5228 72.9875 84.6144C75.445 85.5657 77.3293 85.5962 78.6926 85.2646C79.1511 85.1852 79.5874 85.0083 79.9723 84.7456C80.3572 84.483 80.6818 84.1407 80.9244 83.7417C81.0122 83.5843 81.0821 83.4174 81.1328 83.2443C81.3063 82.6102 81.3063 81.9408 81.1328 81.3068C80.6725 79.4697 79.548 78.0254 78.2715 76.6901C76.8273 75.1914 75.226 73.8542 73.4955 72.7018C72.0359 71.7225 70.521 70.8294 68.9583 70.0268L68.8237 69.9571L68.4677 69.7737C65.3458 68.1854 62.0374 67.0465 58.7594 65.8466C55.9241 64.7949 53.0889 63.7258 50.3362 62.4822L49.9671 62.3164C48.4562 61.6225 46.967 60.8764 45.5211 60.0473C45.3171 59.9339 45.1174 59.816 44.9176 59.6938C42.0911 58.0182 39.4686 56.0982 37.3585 53.5848C36.5939 52.6817 35.9327 51.6951 35.3873 50.6437C34.5716 49.0649 34.1036 47.3281 34.0153 45.5514C33.9765 44.7674 34.0246 43.9815 34.1586 43.2081C34.5201 40.9415 35.7477 38.9061 37.5799 37.5354C39.5428 36.1375 41.9608 35.5417 44.3445 35.8685C47.5617 36.2263 50.4621 37.4874 53.2018 39.0758C54.9168 40.0751 57.8171 42.2001 59.0589 43.1296C58.5075 43.5398 57.9561 43.9586 57.4047 44.395C56.8533 44.8314 56.3497 45.2328 55.8199 45.6692C55.225 45.2634 54.4045 44.7267 53.6056 44.2772C51.7892 43.2524 49.8132 42.5442 47.7615 42.1827C46.7401 41.9506 45.6824 41.9298 44.6527 42.1216C44.4559 42.1769 44.2736 42.2379 44.1056 42.3049C42.9768 42.7412 42.3386 43.4176 42.23 44.4866C42.1927 44.9858 42.2412 45.4877 42.3733 45.9703C42.9158 47.7081 43.8953 49.2757 45.2172 50.5216C45.5385 50.8488 45.8728 51.163 46.2114 51.4597C47.5164 52.5935 48.9235 53.6029 50.4143 54.475C51.5258 55.1426 52.6764 55.7579 53.8531 56.3644C54.1874 56.539 54.526 56.7048 54.8647 56.8706L55.1166 56.9928C58.3034 58.52 61.6293 59.7069 64.9378 60.9593C67.8685 62.072 70.7861 63.224 73.6214 64.581C75.0151 65.2487 76.3828 65.9687 77.7201 66.7629L78.3583 67.1425C80.9823 68.6649 83.3721 70.5626 85.4529 72.7759C87.589 75.1279 89.0957 77.6326 89.5298 80.8137C89.9169 83.385 89.2959 86.007 87.7975 88.1271Z" fill="#F1F0F1"/>
<path d="M71.5505 74.6434L71.1163 75.0797C69.4056 76.7495 67.6819 78.3073 65.9451 79.7531C65.233 80.3349 64.5196 80.908 63.8046 81.4724C61.4797 83.2831 59.0434 84.9446 56.5103 86.4469C55.8027 86.8615 55.1079 87.2499 54.4176 87.6164C49.2639 90.348 44.566 91.7226 40.984 91.4564C40.7105 91.4564 40.4369 91.404 40.1721 91.3647C39.0739 91.2139 38.0226 90.8204 37.0937 90.2127C36.7816 89.9952 36.4908 89.7483 36.2254 89.4753C34.9228 88.1662 34.2628 86.2768 34.2238 83.9903C34.1717 81.1539 35.0531 77.6979 36.742 73.9103C37.6345 71.9186 38.6496 69.9847 39.7813 68.1198C41.0432 66.0532 42.4082 64.0521 43.8713 62.1241C44.7744 62.6391 45.6992 63.1322 46.6414 63.6209L47.6531 64.1271C48.0178 64.306 48.3868 64.4805 48.7559 64.6464C48.6082 64.8602 48.4693 65.0827 48.3217 65.2835C47.173 67.0036 46.1764 68.8214 45.3432 70.7161C44.3229 73.1074 43.8105 75.2761 43.88 77.0564C43.8803 78.157 44.2335 79.2281 44.8873 80.111C44.9784 80.22 45.074 80.3292 45.1739 80.4295C45.4495 80.7055 45.7641 80.9392 46.1074 81.1234C47.242 81.6708 48.5122 81.8697 49.7588 81.695C52.7981 81.4026 56.7535 79.6921 60.8739 76.8557C62.9782 75.4031 64.9749 73.7988 66.8482 72.0557C68.0857 72.6623 69.3057 73.3124 70.4954 74.015L70.6387 74.0979C70.9469 74.2855 71.2509 74.4688 71.5505 74.6434Z" fill="#F1F0F1"/>
<path d="M89.3909 45.5554C89.1704 47.1777 88.7849 48.773 88.2404 50.3161C86.7164 54.802 83.8986 59.7677 79.9909 64.9778C79.865 64.908 79.7434 64.8339 79.6218 64.7597L79.1139 64.4673C78.4062 64.0571 77.6854 63.6732 76.943 63.2978C76.4567 63.0492 75.9704 62.8092 75.4797 62.5735L75.115 62.4033C75.115 62.4033 75.3668 62.0498 75.6187 61.6833C75.762 61.4826 75.9009 61.2732 75.9965 61.1161C79.8042 54.959 80.9808 49.4304 78.506 46.9387C78.2383 46.6734 77.9359 46.4459 77.6073 46.2623L77.3771 46.1489C74.6895 44.866 70.1132 46.0355 65.0463 49.0682C62.1826 50.7816 59.5038 52.7894 57.0531 55.0593C56.9488 55.0114 56.0675 54.575 55.7505 54.4005C54.9342 53.9641 53.3321 53.0914 53.3321 53.0914L52.3074 52.4979L52.8502 51.9525C54.908 49.9578 57.0673 48.0716 59.3195 46.3016C62.7654 43.5595 66.4776 41.1736 70.3998 39.1802C74.1685 37.2995 77.6637 36.178 80.6118 35.9337C82.9347 35.7373 84.9189 36.0908 86.4299 37.042L86.6383 37.1773C86.9471 37.391 87.2376 37.6304 87.5066 37.8929C88.5409 38.9791 89.1988 40.3718 89.3822 41.8638C89.3822 41.8638 89.4387 42.3656 89.4605 42.4878C89.5495 43.5098 89.5262 44.5386 89.3909 45.5554Z" fill="#F1F0F1"/>
</g>
</g>
<defs>
<clipPath id="clip0_466_303">
<rect width="55.6967" height="56.8333" fill="white" transform="translate(34 35)"/>
</clipPath>
</defs>
</svg>
