<svg width="30" height="31" viewBox="0 0 30 31" fill="none" xmlns="http://www.w3.org/2000/svg">
<path d="M23.2375 7.86245C21.7 7.14995 20.0625 6.62495 18.3375 6.32495C18.125 6.69995 17.875 7.21245 17.7125 7.62495C15.8875 7.34995 14.075 7.34995 12.2875 7.62495C12.1125 7.21245 11.8625 6.69995 11.65 6.32495C9.92502 6.62495 8.28752 7.14995 6.75002 7.86245C3.65002 12.5375 2.81252 17.1 3.22502 21.5875C5.28752 23.125 7.27502 24.05 9.23752 24.6625C9.72502 24 10.15 23.2875 10.525 22.55C9.81252 22.2875 9.13752 21.95 8.50002 21.5625C8.67502 21.4375 8.83752 21.3 9.00002 21.175C12.9125 23 17.15 23 21.0125 21.175C21.175 21.3125 21.3375 21.4375 21.5125 21.5625C20.875 21.95 20.1875 22.275 19.4875 22.55C19.8625 23.2875 20.2875 24 20.775 24.6625C22.7375 24.05 24.7375 23.125 26.7875 21.5875C27.275 16.375 25.95 11.8625 23.2625 7.86245H23.2375ZM11.05 18.8375C9.87502 18.8375 8.91252 17.75 8.91252 16.4125C8.91252 15.075 9.85002 13.9875 11.05 13.9875C12.25 13.9875 13.2 15.075 13.1875 16.4125C13.1875 17.7375 12.25 18.8375 11.05 18.8375ZM18.9375 18.8375C17.7625 18.8375 16.8 17.75 16.8 16.4125C16.8 15.075 17.7375 13.9875 18.9375 13.9875C20.1375 13.9875 21.0875 15.075 21.075 16.4125C21.075 17.7375 20.1375 18.8375 18.9375 18.8375Z" fill="#F1F0F1"/>
</svg>
