<svg width="35" height="35" viewBox="0 0 35 35" fill="none" xmlns="http://www.w3.org/2000/svg">
<path fill-rule="evenodd" clip-rule="evenodd" d="M5.83333 7.29175C5.02793 7.29175 4.375 7.94467 4.375 8.75008C4.375 9.55549 5.02793 10.2084 5.83333 10.2084H29.1667C29.9721 10.2084 30.625 9.55549 30.625 8.75008C30.625 7.94467 29.9721 7.29175 29.1667 7.29175H5.83333ZM10.2083 17.5001C10.2083 16.6946 10.8613 16.0417 11.6667 16.0417H29.1667C29.9721 16.0417 30.625 16.6946 30.625 17.5001C30.625 18.3055 29.9721 18.9584 29.1667 18.9584H11.6667C10.8613 18.9584 10.2083 18.3055 10.2083 17.5001ZM18.9583 26.2501C18.9583 25.4446 19.6112 24.7917 20.4167 24.7917H29.1667C29.9721 24.7917 30.625 25.4446 30.625 26.2501C30.625 27.0555 29.9721 27.7084 29.1667 27.7084H20.4167C19.6112 27.7084 18.9583 27.0555 18.9583 26.2501Z" fill="#F1F0F1"/>
</svg>
