<svg width="35" height="35" viewBox="0 0 35 35" fill="none" xmlns="http://www.w3.org/2000/svg">
<path d="M7.27748 5.81899C6.98737 5.81907 6.70387 5.90566 6.46323 6.0677C6.22259 6.22975 6.03574 6.45987 5.92658 6.72866C5.81741 6.99745 5.79088 7.29268 5.85039 7.57663C5.9099 7.86057 6.05273 8.12032 6.26063 8.32266L15.4379 17.4999L6.26063 26.6771C6.12067 26.8115 6.00893 26.9725 5.93195 27.1506C5.85497 27.3287 5.81431 27.5204 5.81233 27.7144C5.81036 27.9084 5.84712 28.1009 5.92045 28.2805C5.99379 28.4601 6.10224 28.6233 6.23943 28.7605C6.37663 28.8977 6.53983 29.0062 6.71946 29.0795C6.89909 29.1528 7.09156 29.1896 7.28557 29.1876C7.47959 29.1856 7.67126 29.145 7.84937 29.068C8.02747 28.991 8.18843 28.8793 8.32281 28.7393L17.5001 19.5621L26.6773 28.7393C26.8117 28.8793 26.9726 28.991 27.1507 29.068C27.3288 29.145 27.5205 29.1857 27.7145 29.1876C27.9085 29.1896 28.101 29.1528 28.2806 29.0795C28.4603 29.0062 28.6235 28.8977 28.7607 28.7605C28.8979 28.6233 29.0063 28.4601 29.0797 28.2805C29.153 28.1009 29.1898 27.9084 29.1878 27.7144C29.1858 27.5204 29.1451 27.3287 29.0682 27.1506C28.9912 26.9725 28.8794 26.8115 28.7395 26.6771L19.5622 17.4999L28.7395 8.32266C28.9502 8.11781 29.0941 7.85409 29.1524 7.56604C29.2107 7.27799 29.1806 6.97905 29.066 6.70841C28.9515 6.43776 28.7579 6.20803 28.5105 6.04932C28.2632 5.89061 27.9737 5.81033 27.6799 5.81899C27.301 5.83028 26.9414 5.98863 26.6773 6.26048L17.5001 15.4377L8.32281 6.26048C8.1869 6.12078 8.02438 6.00974 7.84484 5.93391C7.6653 5.85808 7.47238 5.819 7.27748 5.81899Z" fill="#F1F0F1"/>
</svg>
