<svg width="35" height="34" viewBox="0 0 35 34" fill="none" xmlns="http://www.w3.org/2000/svg">
<g clip-path="url(#clip0_295_603)">
<path d="M6.94368 11.6301C7.33936 11.1214 7.62199 10.4431 7.5372 9.76477C6.94368 9.79303 6.23711 10.1604 5.81317 10.6409C5.44576 11.0649 5.10661 11.7714 5.1914 12.4215C5.8697 12.5063 6.51974 12.1388 6.94368 11.6301ZM7.5372 12.591C6.57627 12.5345 5.75665 13.128 5.30445 13.128C4.85224 13.128 4.14568 12.6193 3.38258 12.6193C2.39339 12.6476 1.48899 13.1846 0.980257 14.089C-0.0371989 15.8695 0.697631 18.4979 1.71509 19.9393C2.19555 20.6459 2.78907 21.4373 3.55216 21.409C4.28699 21.3807 4.56962 20.9285 5.44576 20.9285C6.3219 20.9285 6.57627 21.409 7.36762 21.3807C8.15898 21.3525 8.66771 20.6742 9.14817 19.9393C9.71342 19.1197 9.93953 18.3284 9.93953 18.3001C9.91126 18.2718 8.38508 17.7066 8.38508 15.9543C8.35682 14.4846 9.57211 13.7781 9.62864 13.7498C8.97859 12.7324 7.90461 12.6193 7.5372 12.591Z" fill="white"/>
<path d="M15.8466 10.5844C17.9381 10.5844 19.3794 12.0257 19.3794 14.0889C19.3794 16.1804 17.9098 17.6218 15.7901 17.6218H13.5008V21.2676H11.8333V10.5844H15.8466ZM13.5008 16.2369H15.3944C16.8358 16.2369 17.6554 15.4455 17.6554 14.1172C17.6554 12.7606 16.8358 11.9975 15.3944 11.9975H13.4725V16.2369H13.5008ZM19.8034 19.0914C19.8034 17.7348 20.8491 16.8869 22.7144 16.7739L24.8624 16.6608V16.0673C24.8624 15.1912 24.2689 14.6824 23.308 14.6824C22.3753 14.6824 21.81 15.1346 21.6687 15.8129H20.1425C20.2273 14.3998 21.4426 13.3541 23.3645 13.3541C25.2581 13.3541 26.4734 14.3433 26.4734 15.926V21.2959H24.9472V20.0241H24.9189C24.4667 20.9002 23.4775 21.4372 22.4601 21.4372C20.8774 21.4372 19.8034 20.4763 19.8034 19.0914ZM24.8624 18.3848V17.7631L22.9405 17.8761C21.9796 17.9326 21.4426 18.3566 21.4426 19.0349C21.4426 19.7132 22.0079 20.1654 22.8558 20.1654C23.9863 20.1654 24.8624 19.4023 24.8624 18.3848ZM27.8865 24.1787V22.8786C27.9996 22.9069 28.2822 22.9069 28.3952 22.9069C29.1301 22.9069 29.5257 22.596 29.7801 21.8046C29.7801 21.7764 29.9214 21.3242 29.9214 21.3242L27.0952 13.5237H28.8192L30.7976 19.8828H30.8258L32.8042 13.5237H34.5L31.5889 21.7481C30.9106 23.6417 30.1475 24.2352 28.5366 24.2352C28.4235 24.207 28.0278 24.207 27.8865 24.1787Z" fill="white"/>
</g>
<defs>
<clipPath id="clip0_295_603">
<rect width="34" height="34" fill="white" transform="translate(0.5)"/>
</clipPath>
</defs>
</svg>
