<svg width="25" height="25" viewBox="0 0 25 25" fill="none" xmlns="http://www.w3.org/2000/svg">
<g clip-path="url(#clip0_396_611)">
<path d="M12.5 25C19.4036 25 25 19.4036 25 12.5C25 5.59644 19.4036 0 12.5 0C5.59644 0 0 5.59644 0 12.5C0 19.4036 5.59644 25 12.5 25Z" fill="#F7931A"/>
<path d="M18.1164 10.9531C18.3617 9.31563 17.1141 8.43516 15.4094 7.84766L15.9625 5.62891L14.6125 5.29297L14.0735 7.45312C13.7188 7.36406 13.3547 7.28125 12.9914 7.19844L13.5344 5.02422L12.1844 4.6875L11.6313 6.90547C11.3375 6.83828 11.0485 6.77266 10.7688 6.70234L10.7703 6.69531L8.90784 6.23047L8.54846 7.67266C8.54846 7.67266 9.55081 7.90234 9.52971 7.91641C10.0766 8.05313 10.175 8.41484 10.1586 8.70234L9.52893 11.2297C9.56643 11.2391 9.61487 11.2531 9.66956 11.2742L9.52659 11.2391L8.64377 14.7797C8.57659 14.9453 8.40706 15.1945 8.02424 15.1C8.03831 15.1195 7.04299 14.8555 7.04299 14.8555L6.37268 16.4008L8.13049 16.8391C8.45706 16.9211 8.77737 17.007 9.09221 17.0875L8.53362 19.3312L9.88284 19.6672L10.436 17.4484C10.8047 17.5477 11.1625 17.6398 11.5125 17.7273L10.961 19.9367L12.311 20.2727L12.8696 18.0336C15.1727 18.4695 16.9039 18.2937 17.6328 16.2109C18.2203 14.5344 17.6039 13.5664 16.3922 12.9359C17.275 12.7328 17.9391 12.1523 18.1164 10.9531ZM15.0305 15.2797C14.6141 16.957 11.7899 16.05 10.8742 15.8227L11.6164 12.85C12.5321 13.0789 15.4672 13.5313 15.0305 15.2797ZM15.4485 10.9289C15.068 12.4547 12.718 11.6789 11.9563 11.4891L12.6281 8.79375C13.3899 8.98359 15.8453 9.3375 15.4485 10.9289Z" fill="#F1F0F1"/>
</g>
<defs>
<clipPath id="clip0_396_611">
<rect width="25" height="25" fill="white"/>
</clipPath>
</defs>
</svg>
