<svg width="1680" height="215" viewBox="0 0 1680 215" fill="none" xmlns="http://www.w3.org/2000/svg">
<g clip-path="url(#clip0_162_132)">
<mask id="mask0_162_132" style="mask-type:luminance" maskUnits="userSpaceOnUse" x="-361" y="-7" width="2041" height="297">
<path d="M1680 -6.0564H-360.95V289.695H1680V-6.0564Z" fill="white"/>
</mask>
<g mask="url(#mask0_162_132)">
<path d="M144.723 66.8036V103.933H126.756C121.993 103.857 117.262 104.783 112.855 106.654C108.453 108.525 104.468 111.303 101.153 114.814C97.7286 118.22 95.014 122.302 93.1679 126.813C91.3217 131.324 90.3844 136.171 90.4168 141.063C90.4168 150.814 88.5423 160.469 84.9026 169.477C81.263 178.486 75.9273 186.671 69.1999 193.565C62.4725 200.458 54.4872 205.926 45.6985 209.656C36.9103 213.385 27.4915 215.304 17.9798 215.301H-0.108398V178.171H17.9798C27.5804 178.166 36.7861 174.255 43.5768 167.297C50.3688 160.34 54.187 150.905 54.1991 141.063C54.2762 131.301 56.1995 121.647 59.8553 112.634C67.2157 94.4255 81.3279 79.9584 99.0878 72.4134C107.82 68.6713 117.193 66.7502 126.655 66.7613L144.723 66.8036Z" fill="#F1F0F1"/>
<path d="M179.062 85.284V29.611H215.28V85.284H251.498V122.414H215.28V140.978C215.292 150.82 219.11 160.256 225.903 167.213C232.691 174.171 241.898 178.081 251.498 178.087V215.217C241.987 215.219 232.569 213.301 223.781 209.571C214.992 205.842 207.007 200.374 200.279 193.48C193.552 186.586 188.216 178.401 184.577 169.393C180.937 160.385 179.062 150.729 179.062 140.978V122.414H160.953V85.284H179.062Z" fill="#F1F0F1"/>
<path d="M303.95 141.063V215.301H267.728V141.063C267.728 131.311 269.598 121.653 273.238 112.642C276.878 103.631 282.213 95.4439 288.941 88.548C295.668 81.6516 303.653 76.1819 312.442 72.4509C321.231 68.7199 330.652 66.8012 340.167 66.8041V103.934C330.563 103.939 321.352 107.853 314.56 114.815C307.772 121.777 303.954 131.217 303.95 141.063Z" fill="#F1F0F1"/>
<path d="M452.533 114.369C449.486 111.044 445.802 108.399 441.712 106.603C437.622 104.807 433.215 103.898 428.764 103.933C422.808 103.928 416.936 105.43 411.682 108.307C406.423 111.183 401.94 115.344 398.629 120.423C395.314 125.5 393.277 131.338 392.692 137.418C392.104 143.497 392.993 149.63 395.273 155.274C397.553 160.918 401.157 165.898 405.766 169.772C410.375 173.646 415.841 176.294 421.688 177.483C427.531 178.672 433.572 178.363 439.273 176.585C444.974 174.807 450.16 171.615 454.371 167.291C456.473 165.158 458.323 162.778 459.881 160.199L490.857 179.251C487.834 184.486 484.178 189.308 479.974 193.603C468.991 204.859 454.769 212.197 439.407 214.531C424.045 216.866 408.359 214.074 394.66 206.569C380.966 199.063 369.986 187.241 363.348 172.849C356.706 158.457 354.758 142.257 357.785 126.642C360.816 111.027 368.66 96.824 380.167 86.131C391.674 75.4379 406.228 68.8213 421.684 67.2584C437.139 65.6954 452.675 69.2687 465.996 77.4507C479.317 85.6327 489.721 97.9898 495.669 112.697C498.948 120.803 500.814 129.437 501.179 138.205L419.988 163.608L410.387 127.621L452.533 114.369Z" fill="#F1F0F1"/>
<path d="M626.067 205.288C623.336 206.935 620.5 208.392 617.578 209.649C603.223 215.748 587.333 216.952 572.255 213.083C557.182 209.214 543.719 200.476 533.859 188.161C523.999 175.845 518.262 160.606 517.499 144.693C516.736 128.78 520.984 113.037 529.619 99.7893C538.253 86.5426 550.815 76.4936 565.451 71.1269C580.082 65.7607 596.012 65.3614 610.883 69.9879C625.754 74.6148 638.779 84.0221 648.038 96.8207C657.294 109.619 662.289 125.13 662.284 141.063V215.301H626.067V205.288ZM589.869 103.933C581.482 103.884 573.339 106.819 566.826 112.237C560.314 117.655 555.839 125.221 554.159 133.644C552.479 142.068 553.7 150.827 557.616 158.43C561.535 166.033 567.902 172.008 575.631 175.337C583.365 178.665 591.983 179.142 600.021 176.684C608.059 174.227 615.014 168.987 619.705 161.86C624.395 154.732 626.529 146.158 625.742 137.598C624.955 129.039 621.299 121.023 615.391 114.919C612.097 111.398 608.128 108.606 603.738 106.716C599.352 104.827 594.629 103.879 589.869 103.933Z" fill="#F1F0F1"/>
<path d="M714.834 141.062V215.301H678.515V141.062C678.527 121.372 686.159 102.49 699.74 88.5646C706.455 81.6555 714.432 76.1731 723.221 72.4326C732.005 68.6918 741.427 66.7661 750.938 66.7661C760.453 66.7661 769.875 68.6918 778.659 72.4326C787.444 76.1731 795.425 81.6555 802.14 88.5646C803.191 89.6232 804.201 90.6817 805.256 91.8881C806.287 90.745 807.322 89.6232 808.373 88.5646C818.5 78.1809 831.407 71.1091 845.455 68.244C859.502 65.379 874.064 66.8491 887.296 72.4688C900.528 78.088 911.84 87.6047 919.797 99.8143C927.754 112.024 932.002 126.378 931.998 141.062V215.301H895.781V141.062C895.553 131.372 891.642 122.155 884.874 115.383C878.11 108.611 869.029 104.819 859.575 104.819C850.117 104.819 841.036 108.611 834.272 115.383C827.504 122.155 823.593 131.372 823.365 141.062V215.301H787.107V141.062C786.88 131.372 782.964 122.155 776.2 115.383C769.436 108.611 760.356 104.819 750.897 104.819C741.443 104.819 732.362 108.611 725.594 115.383C718.83 122.155 714.915 131.372 714.692 141.062H714.834Z" fill="#F1F0F1"/>
<path d="M966.471 48.239C961.212 48.2571 956.112 46.4037 952.038 42.996C947.965 39.5883 945.169 34.8366 944.13 29.5521C943.091 24.2675 943.875 18.7773 946.342 14.0181C948.813 9.25884 952.817 5.52543 957.67 3.45485C962.527 1.38422 967.932 1.10465 972.967 2.66384C977.998 4.22298 982.348 7.5243 985.274 12.0046C988.199 16.4848 989.514 21.8665 989.003 27.2314C988.487 32.5962 986.174 37.6121 982.454 41.4228C980.384 43.6175 977.901 45.3542 975.15 46.5266C972.403 47.6989 969.449 48.2818 966.471 48.239ZM984.56 215.301H948.322V66.804H984.519L984.56 215.301Z" fill="#F1F0F1"/>
<path d="M1000.87 66.8041H1041.61L1073.29 136.406L1104.96 66.8041H1145.7L1073.29 215.301L1000.87 66.8041Z" fill="#F1F0F1"/>
<path d="M1258.07 114.369C1255.02 111.044 1251.34 108.401 1247.25 106.605C1243.16 104.809 1238.75 103.899 1234.3 103.933C1228.34 103.928 1222.47 105.43 1217.22 108.307C1211.96 111.183 1207.47 115.344 1204.16 120.423C1200.85 125.5 1198.81 131.338 1198.22 137.418C1197.64 143.497 1198.53 149.63 1200.81 155.274C1203.09 160.918 1206.69 165.898 1211.3 169.772C1215.91 173.646 1221.37 176.294 1227.22 177.483C1233.06 178.672 1239.11 178.363 1244.81 176.585C1250.51 174.807 1255.69 171.615 1259.9 167.291C1262.01 165.158 1263.86 162.778 1265.42 160.199L1296.39 179.251C1293.37 184.486 1289.71 189.308 1285.51 193.603C1274.52 204.859 1260.3 212.197 1244.94 214.531C1229.58 216.866 1213.89 214.074 1200.19 206.569C1186.5 199.063 1175.52 187.241 1168.88 172.849C1162.24 158.457 1160.29 142.257 1163.32 126.642C1166.35 111.027 1174.19 96.824 1185.7 86.131C1197.21 75.4379 1211.76 68.8213 1227.22 67.2584C1242.67 65.6954 1258.21 69.2687 1271.53 77.4507C1284.85 85.6327 1295.25 97.9898 1301.2 112.697C1304.48 120.803 1306.35 129.437 1306.71 138.205L1225.52 163.608L1215.9 127.621L1258.07 114.369Z" fill="#F1F0F1"/>
<path d="M1359.1 141.063V215.301H1322.94V141.063C1322.94 131.312 1324.81 121.654 1328.45 112.644C1332.08 103.633 1337.42 95.4455 1344.14 88.5492C1350.87 81.6524 1358.85 76.1827 1367.64 72.4513C1376.43 68.7203 1385.85 66.8012 1395.36 66.8041V103.934C1385.76 103.939 1376.55 107.853 1369.76 114.815C1362.97 121.777 1359.15 131.217 1359.14 141.063H1359.1Z" fill="#F1F0F1"/>
<path d="M1520.23 66.8041V103.934H1502.27C1497.5 103.857 1492.77 104.783 1488.37 106.654C1483.96 108.526 1479.98 111.303 1476.66 114.814C1473.24 118.223 1470.52 122.304 1468.67 126.814C1466.83 131.325 1465.89 136.171 1465.91 141.063C1465.91 150.813 1464.04 160.468 1460.4 169.476C1456.76 178.484 1451.43 186.669 1444.7 193.563C1437.98 200.458 1429.99 205.926 1421.21 209.656C1412.42 213.386 1403 215.304 1393.49 215.301H1375.38V178.172H1393.49C1403.09 178.166 1412.3 174.255 1419.09 167.298C1425.88 160.34 1429.7 150.905 1429.71 141.063C1429.78 131.3 1431.7 121.644 1435.37 112.634C1440.84 99.0886 1450.09 87.5067 1461.97 79.3501C1473.86 71.1935 1487.83 66.8279 1502.12 66.8041H1520.23Z" fill="#F1F0F1"/>
<path d="M1632.34 114.369C1629.29 111.043 1625.61 108.399 1621.52 106.603C1617.43 104.807 1613.02 103.898 1608.57 103.933C1602.61 103.928 1596.74 105.43 1591.49 108.307C1586.23 111.183 1581.75 115.345 1578.44 120.422C1575.12 125.5 1573.08 131.338 1572.5 137.417C1571.91 143.497 1572.8 149.63 1575.08 155.274C1577.36 160.918 1580.96 165.898 1585.57 169.772C1590.18 173.646 1595.65 176.294 1601.49 177.483C1607.34 178.672 1613.38 178.363 1619.08 176.585C1624.78 174.807 1629.97 171.615 1634.18 167.291C1636.28 165.158 1638.13 162.778 1639.69 160.199L1670.66 179.251C1667.63 184.486 1663.97 189.309 1659.76 193.603C1648.79 204.819 1634.58 212.121 1619.25 214.433C1603.92 216.745 1588.27 213.943 1574.61 206.442C1560.95 198.941 1550.01 187.137 1543.39 172.773C1536.77 158.408 1534.83 142.244 1537.86 126.663C1540.88 111.083 1548.71 96.9123 1560.19 86.2423C1571.68 75.5718 1586.2 68.9671 1601.62 67.4021C1617.04 65.8371 1632.54 69.3947 1645.84 77.5505C1659.14 85.7058 1669.53 98.0276 1675.48 112.697C1678.74 120.809 1680.61 129.439 1681.01 138.205L1599.81 163.607L1590.19 127.621L1632.34 114.369Z" fill="#F1F0F1"/>
</g>
</g>
<defs>
<clipPath id="clip0_162_132">
<rect width="1680" height="215" fill="white"/>
</clipPath>
</defs>
</svg>
