<svg width="30" height="25" viewBox="0 0 30 25" fill="none" xmlns="http://www.w3.org/2000/svg">
<path d="M30 3.1955C28.8941 3.6865 27.7087 4.01617 26.4625 4.16581C27.7344 3.40359 28.7117 2.19714 29.17 0.761554C27.9822 1.46532 26.6612 1.97736 25.2607 2.25325C24.1384 1.05615 22.5392 0.310303 20.7692 0.310303C17.3697 0.310303 14.613 3.06457 14.613 6.46415C14.613 6.94579 14.6692 7.41575 14.7744 7.867C9.65864 7.60981 5.12509 5.1595 2.08791 1.43492C1.55717 2.34678 1.25555 3.40359 1.25555 4.53055C1.25555 6.66522 2.34043 8.54972 3.99345 9.65564C2.9834 9.6229 2.03414 9.34467 1.20412 8.88407C1.20412 8.90979 1.20412 8.93551 1.20412 8.96123C1.20412 11.9446 3.3271 14.43 6.13982 14.9982C5.62544 15.1385 5.08066 15.2133 4.51952 15.2133C4.12205 15.2133 3.73626 15.1759 3.35983 15.101C4.14543 17.5443 6.41805 19.3283 9.10919 19.3774C7.00491 21.0281 4.35118 22.0101 1.46598 22.0101C0.967968 22.0101 0.479308 21.982 0 21.9236C2.72153 23.6725 5.95745 24.6895 9.43418 24.6895C20.7552 24.6895 26.9465 15.3115 26.9465 7.1796C26.9465 6.91306 26.9394 6.64418 26.9301 6.38232C28.1319 5.51488 29.1747 4.43001 30 3.1955Z" fill="#F1F0F1"/>
</svg>
